<svg width="81" height="80" viewBox="0 0 81 80" fill="none" xmlns="http://www.w3.org/2000/svg">
<path d="M38.5 73.0001V13.1704C38.5 9.84185 36.5785 6.51764 33.25 6.5C30.7796 6.50251 28.3676 7.2519 26.3308 8.64979C22.4681 11.3007 18.8044 14.9657 16.155 18.8294C15.9849 19.0775 15.8235 19.3324 15.6713 19.5938C15.0864 20.5984 14.6517 21.6737 14.3736 22.7859C13.6414 25.7144 12.6359 28.7209 11.459 31.5005C11.312 31.8505 11.235 32.232 11.109 32.596C10.9613 32.9896 10.8375 33.3916 10.738 33.8C10.106 36.9555 9.25919 40.2677 8.05 43.2501L7.9975 43.3761C7.65407 44.257 7.40078 45.1705 7.2415 46.1026C7.09225 46.8933 7.01145 47.6954 7 48.5001C7.01167 49.3424 7.09567 50.1777 7.252 51.0061C7.42015 52.0036 7.69593 52.98 8.0745 53.9181L8.148 54.0616C8.54406 54.9585 9.03324 55.8114 9.6075 56.6061C9.97617 57.1194 10.3752 57.6036 10.8045 58.0586C11.0588 58.3223 11.3213 58.5743 11.592 58.8146C11.942 59.1343 12.3095 59.4376 12.6945 59.7246C13.0795 60.0081 13.3945 60.2146 13.7725 60.4246L13.8255 60.4605C13.9215 60.5256 13.979 60.6341 13.979 60.7501C13.9828 63.7132 15.0587 66.5749 17.008 68.8066C17.2051 69.0323 17.4098 69.2499 17.6215 69.4593C21.2613 73.059 26.438 75.6817 31.5084 76.386C33.4622 76.6573 35.4418 76.4413 37.2752 75.7711C38.3029 75.3954 38.516 74.0942 38.5 73.0001ZM76.769 46.1201C76.6109 45.1882 76.3587 44.2747 76.0165 43.3936L75.957 43.2606C74.7468 40.2723 73.9111 36.9559 73.2515 33.8C73.1575 33.4051 73.0406 33.016 72.9015 32.6345C72.7825 32.2565 72.702 31.8645 72.5515 31.5005C71.3746 28.7207 70.3685 25.7143 69.6354 22.786C69.3567 21.6728 68.9211 20.5966 68.335 19.5914C68.1821 19.3291 68.0199 19.0733 67.8489 18.8244C65.1964 14.9634 61.5315 11.3005 57.6692 8.64979C55.6324 7.2519 53.2204 6.50251 50.75 6.5C47.4215 6.51764 45.5 9.84185 45.5 13.1704V73.0001C45.4743 74.0938 45.6827 75.3984 46.7103 75.7734C48.5419 76.4418 50.5191 76.657 52.4706 76.386C57.541 75.6817 62.7177 73.059 66.3575 69.4593C66.5692 69.2499 66.7739 69.0323 66.971 68.8066C68.9203 66.5749 69.9962 63.7132 70 60.7501C70 60.6428 70.0532 60.5425 70.1419 60.4823L70.2065 60.4386C70.5775 60.2146 70.9368 59.9813 71.2845 59.7386C71.806 59.3746 72.0335 59.1471 72.387 58.8286C72.6577 58.5859 72.9202 58.3339 73.1745 58.0726C73.7729 57.4381 74.3108 56.7491 74.781 56.0146C75.1847 55.3986 75.5347 54.7522 75.831 54.0756L75.9045 53.9321C76.2102 53.1854 76.4493 52.4166 76.622 51.6256C76.6663 51.4249 76.7072 51.2231 76.7445 51.0201C76.9055 50.1894 76.9907 49.3494 77 48.5001C76.991 47.7016 76.9137 46.9054 76.769 46.1201Z" fill="url(#paint0_linear_2419_8689)"/>
<defs>
<linearGradient id="paint0_linear_2419_8689" x1="7" y1="41.5" x2="77" y2="41.5" gradientUnits="userSpaceOnUse">
<stop offset="0.615385" stop-color="#00208A"/>
<stop offset="1" stop-color="#FF7C02"/>
</linearGradient>
</defs>
</svg>
