<svg width="81" height="80" viewBox="0 0 81 80" fill="none" xmlns="http://www.w3.org/2000/svg">
<g clip-path="url(#clip0_2419_8679)">
<path fill-rule="evenodd" clip-rule="evenodd" d="M25.2986 2.3418H37.02C45.7017 2.3418 59.5134 6.67091 64.1707 20.6428C66.3001 27.0349 65.4288 32.5479 64.5458 38.1507C64.4676 38.6196 64.3934 39.091 64.3231 39.5651C63.4752 45.0898 62.643 51.5913 63.8347 60.9489H68.2771C69.3133 60.9489 70.3071 61.3605 71.0399 62.0933C71.7726 62.826 72.1842 63.8198 72.1842 64.856V76.5774C72.1842 77.6137 71.7726 78.6075 71.0399 79.3402C70.3071 80.0729 69.3133 80.4846 68.2771 80.4846H21.3914C20.3552 80.4846 19.3614 80.0729 18.6287 79.3402C17.8959 78.6075 17.4843 77.6137 17.4843 76.5774V64.856C17.4843 63.8198 17.8959 62.826 18.6287 62.0933C19.3614 61.3605 20.3552 60.9489 21.3914 60.9489H25.7127C26.6192 56.4791 29.2292 50.3293 35.7306 43.9294C36.4417 43.2261 36.8637 42.4173 37.0395 41.6164C32.9105 44.1986 28.5941 46.4685 24.1264 48.407C23.0582 48.8702 21.8751 49.0002 20.7318 48.7799C19.5885 48.5596 18.5383 47.9993 17.7187 47.1723L11.9479 41.4015C10.9892 40.4436 10.3921 39.1832 10.2582 37.8347C10.1243 36.4862 10.4618 35.1329 11.2133 34.0053L24.6969 13.7819L21.8056 7.99933C21.5071 7.40366 21.3659 6.74155 21.3954 6.07592C21.4249 5.4103 21.6241 4.76328 21.9742 4.19635C22.3242 3.62942 22.8134 3.16142 23.3952 2.83682C23.9771 2.51223 24.6323 2.34182 25.2986 2.3418ZM33.1129 29.6918C34.1491 29.6918 35.1429 29.2801 35.8756 28.5474C36.6083 27.8147 37.02 26.8209 37.02 25.7846C37.02 24.7484 36.6083 23.7546 35.8756 23.0219C35.1429 22.2891 34.1491 21.8775 33.1129 21.8775C32.0766 21.8775 31.0828 22.2891 30.3501 23.0219C29.6174 23.7546 29.2057 24.7484 29.2057 25.7846C29.2057 26.8209 29.6174 27.8147 30.3501 28.5474C31.0828 29.2801 32.0766 29.6918 33.1129 29.6918Z" fill="url(#paint0_linear_2419_8679)"/>
</g>
<defs>
<linearGradient id="paint0_linear_2419_8679" x1="10.2295" y1="41.4132" x2="72.1842" y2="41.4132" gradientUnits="userSpaceOnUse">
<stop offset="0.615385" stop-color="#00208A"/>
<stop offset="1" stop-color="#FF7C02"/>
</linearGradient>
<clipPath id="clip0_2419_8679">
<rect width="80" height="80" fill="white" transform="translate(0.5)"/>
</clipPath>
</defs>
</svg>
