<svg width="81" height="80" viewBox="0 0 81 80" fill="none" xmlns="http://www.w3.org/2000/svg">
<path d="M40 33.5C43.1826 33.5 46.2348 32.2357 48.4853 29.9853C50.7357 27.7348 52 24.6826 52 21.5C52 18.3174 50.7357 15.2652 48.4853 13.0147C46.2348 10.7643 43.1826 9.5 40 9.5C36.8174 9.5 33.7652 10.7643 31.5147 13.0147C29.2643 15.2652 28 18.3174 28 21.5C28 24.6826 29.2643 27.7348 31.5147 29.9853C33.7652 32.2357 36.8174 33.5 40 33.5ZM20.5 42.5C22.4891 42.5 24.3968 41.7098 25.8033 40.3033C27.2098 38.8968 28 36.9891 28 35C28 33.0109 27.2098 31.1032 25.8033 29.6967C24.3968 28.2902 22.4891 27.5 20.5 27.5C18.5109 27.5 16.6032 28.2902 15.1967 29.6967C13.7902 31.1032 13 33.0109 13 35C13 36.9891 13.7902 38.8968 15.1967 40.3033C16.6032 41.7098 18.5109 42.5 20.5 42.5ZM67 35C67 36.9891 66.2098 38.8968 64.8033 40.3033C63.3968 41.7098 61.4891 42.5 59.5 42.5C57.5109 42.5 55.6032 41.7098 54.1967 40.3033C52.7902 38.8968 52 36.9891 52 35C52 33.0109 52.7902 31.1032 54.1967 29.6967C55.6032 28.2902 57.5109 27.5 59.5 27.5C61.4891 27.5 63.3968 28.2902 64.8033 29.6967C66.2098 31.1032 67 33.0109 67 35ZM40 36.5C43.9782 36.5 47.7936 38.0804 50.6066 40.8934C53.4196 43.7064 55 47.5218 55 51.5V54.5C55 62.7843 48.2843 69.5 40 69.5C31.7157 69.5 25 62.7843 25 54.5V51.5C25 47.5218 26.5804 43.7064 29.3934 40.8934C32.2064 38.0804 36.0218 36.5 40 36.5ZM19 51.5C19 49.6 19.2506 47.7602 19.7242 46.0102C19.7885 45.7726 19.5993 45.5398 19.354 45.56C16.7826 45.8423 14.406 47.0639 12.6798 48.9905C10.9536 50.9172 9.99933 53.4132 10 56V65C10 67.4853 12.0147 69.5 14.5 69.5C16.9853 69.5 19 67.4853 19 65V51.5ZM65.5 69.5C67.9853 69.5 70 67.4853 70 65V56C70.0003 53.3251 68.9798 50.7509 67.1466 48.8029C66.7177 48.3472 66.2519 47.9337 65.7557 47.5656C63.3875 45.8089 61 48.5513 61 51.5V65C61 67.4853 63.0147 69.5 65.5 69.5Z" fill="url(#paint0_linear_2421_15030)"/>
<defs>
<linearGradient id="paint0_linear_2421_15030" x1="10" y1="39.5" x2="70" y2="39.5" gradientUnits="userSpaceOnUse">
<stop offset="0.615385" stop-color="#00208A"/>
<stop offset="1" stop-color="#FF7C02"/>
</linearGradient>
</defs>
</svg>
