<svg width="81" height="80" viewBox="0 0 81 80" fill="none" xmlns="http://www.w3.org/2000/svg">
<g clip-path="url(#clip0_2419_8697)">
<path d="M79.9725 30.7203L71.9969 14.7634C71.7031 14.176 71.2964 13.6524 70.8002 13.2222C70.304 12.792 69.7279 12.4638 69.1048 12.2563C68.4817 12.0489 67.8238 11.9661 67.1688 12.0129C66.5137 12.0596 65.8743 12.235 65.287 12.5289C60.2779 15.0323 54.5279 15.6233 49.1143 14.1912L41.1413 12.082C40.7212 11.9727 40.2801 11.9727 39.8599 12.082L31.8869 14.1912C26.4734 15.6233 20.7233 15.0323 15.7143 12.5289C15.127 12.235 14.4875 12.0596 13.8325 12.0129C13.1774 11.9661 12.5196 12.0489 11.8965 12.2563C11.2734 12.4638 10.6973 12.792 10.201 13.2222C9.7048 13.6524 9.29817 14.176 9.00435 14.7634L1.02871 30.7172C0.734803 31.3044 0.559459 31.9439 0.512694 32.5989C0.465929 33.2539 0.54866 33.9118 0.756163 34.5348C0.963665 35.1579 1.29187 35.734 1.72205 36.2302C2.15222 36.7264 2.67593 37.133 3.26327 37.4268C8.88013 40.2372 14.2687 43.4824 19.3799 47.1325L29.0435 54.0338C29.2991 54.2154 29.5863 54.3478 29.8904 54.4245L49.892 59.4247C50.3109 59.5297 50.7498 59.5245 51.1661 59.4095C51.5823 59.2945 51.9617 59.0736 52.2672 58.7684L64.7682 46.2679C67.8897 43.1465 71.494 40.5487 75.4424 38.5746L77.738 37.4268C78.9233 36.8335 79.8246 35.7937 80.2436 34.5361C80.6626 33.2785 80.5651 31.906 79.9725 30.7203ZM64.0057 39.9578C63.3299 40.6355 62.2522 40.6957 61.5052 40.0974L52.064 32.536C51.5823 32.1502 50.9748 31.9562 50.3586 31.9914C49.7424 32.0266 49.161 32.2885 48.7263 32.7266C47.9688 33.4896 47.1996 34.1356 46.4258 34.676C40.4605 38.8423 38.0215 30.2463 43.2409 25.1768L43.6873 24.7432C45.4998 22.9828 47.927 21.998 50.4536 21.998C54.1317 21.998 57.4942 24.076 59.1394 27.3656L64.355 37.7946C64.7157 38.5158 64.5751 39.3868 64.0057 39.9578ZM52.9399 51.0214C50.9502 53.0124 48.0616 53.813 45.3309 53.1303L34.9008 50.5229C32.699 49.9725 30.6205 49.0127 28.7737 47.6937L26.611 46.1491C20.6114 41.8642 18.621 33.8512 21.9182 27.257C23.8414 23.4108 27.3245 20.5764 31.4812 19.4751L40.1022 17.1909C40.3633 17.1217 40.6379 17.1216 40.8991 17.1906C42.0706 17.5002 42.4554 18.9702 41.5859 19.8141L29.4997 31.5453L29.4747 31.5735C28.9453 32.1028 28.5416 32.7443 28.2932 33.4506C28.0449 34.1569 27.9583 34.9099 28.0399 35.6541C28.1215 36.3983 28.3692 37.1147 28.7647 37.7504C29.1601 38.386 29.6933 38.9248 30.3248 39.3269C35.4389 42.5927 41.3943 42.8376 46.6911 40.2806C49.1412 39.0978 52.1288 38.9837 54.25 40.6874C56.9204 42.8324 57.138 46.8207 54.7168 49.2434L52.9399 51.0214ZM41.6945 65.1062C41.5594 65.6465 41.2477 66.1263 40.809 66.4694C40.3702 66.8125 39.8294 66.9992 39.2724 67C39.0669 67.0001 38.8623 66.9749 38.663 66.925L25.6276 63.6655C25.323 63.5903 25.0355 63.4577 24.7806 63.2748L16.5456 57.3933C16.0392 56.9958 15.7058 56.4183 15.6146 55.781C15.5234 55.1437 15.6816 54.4959 16.0561 53.9723C16.4307 53.4487 16.9928 53.0898 17.6254 52.9703C18.258 52.8508 18.9123 52.9798 19.4521 53.3307C24.6373 57.0351 30.4742 59.7292 36.6572 61.2718L39.8756 62.0748C40.5187 62.2357 41.0716 62.6454 41.4127 63.2139C41.7538 63.7823 41.8552 64.463 41.6945 65.1062Z" fill="url(#paint0_linear_2419_8697)"/>
</g>
<defs>
<linearGradient id="paint0_linear_2419_8697" x1="0.5" y1="39.5" x2="80.5" y2="39.5" gradientUnits="userSpaceOnUse">
<stop offset="0.615385" stop-color="#00208A"/>
<stop offset="1" stop-color="#FF7C02"/>
</linearGradient>
<clipPath id="clip0_2419_8697">
<rect width="80" height="80" fill="white" transform="translate(0.5)"/>
</clipPath>
</defs>
</svg>
